<?xml version="1.0" encoding="UTF-8"?>
<!DOCTYPE svg PUBLIC "-//W3C//DTD SVG 1.1//EN" "http://www.w3.org/Graphics/SVG/1.1/DTD/svg11.dtd">
<svg version="1.1" xmlns="http://www.w3.org/2000/svg" xmlns:xlink="http://www.w3.org/1999/xlink" x="0" y="0" width="1000" height="1000" viewBox="0, 0, 1000, 1000">
  <g id="Background">
    <rect x="0" y="0" width="1000" height="1000" fill="#FFFFFF" fill-opacity="0"/>
  </g>
  <g id="Layer_2">
    <path d="M242.566,250.5 L758.433,250.5 C765.098,250.5 770.5,255.889 770.5,262.536 L770.5,568.465 C770.5,575.112 765.098,580.5 758.433,580.5 L242.566,580.5 C235.902,580.5 230.5,575.112 230.5,568.465 L230.5,262.536 C230.5,255.889 235.902,250.5 242.566,250.5 z" fill-opacity="0" stroke="#000000" stroke-width="20" stroke-linecap="round"/>
    <path d="M1048.08,283.372 L1046.255,280.331 L1046.255,280.331 C1045.957,279.834 1045.312,279.673 1044.815,279.971 C1044.318,280.27 1044.156,280.914 1044.455,281.412 L1046.279,284.452 C1046.279,284.452 1046.279,284.452 1046.279,284.452 C1046.578,284.95 1047.222,285.111 1047.719,284.812 C1048.217,284.514 1048.378,283.869 1048.08,283.372 L1048.08,283.372" fill="#000000"/>
    <g>
      <path d="M770.5,610.5 L770.5,722.5 L230.5,722.5 L230.5,610.5 L770.5,610.5" fill="#000000"/>
      <path d="M770.5,610.5 L770.5,722.5 L230.5,722.5 L230.5,610.5 L770.5,610.5" fill-opacity="0" stroke="#000000" stroke-width="20" stroke-linecap="round" stroke-linejoin="round"/>
    </g>
  </g>
</svg>
